<svg xmlns="http://www.w3.org/2000/svg" viewBox="0 0 512 512">
  <rect width="512" height="512" rx="92" fill="#172033"/>
  <path d="M128 168c0-26.5 21.5-48 48-48h160c26.5 0 48 21.5 48 48v176c0 26.5-21.5 48-48 48H176c-26.5 0-48-21.5-48-48V168Z" fill="#1F8A70"/>
  <path d="M168 184h176v40H168v-40Zm0 72h176v40H168v-40Zm0 72h112v40H168v-40Z" fill="#F6F7F2"/>
  <circle cx="344" cy="348" r="56" fill="#F6A733"/>
  <path d="M328 350c0 13.3 10.7 24 24 24h8" stroke="#172033" stroke-width="22" stroke-linecap="round"/>
</svg>
